<svg xmlns="http://www.w3.org/2000/svg" width="223.163" height="248.174" viewBox="0 0 223.163 248.174"><defs><style>.a{opacity:0.1;}.b,.c{fill:none;stroke:#fff;stroke-linecap:round;stroke-linejoin:round;}.b{stroke-width:2.25px;}.c{stroke-width:2.675px;}.d{fill:#fff;}</style></defs><g class="a" transform="translate(-142.55 -1982.26)"><g transform="translate(264.317 1991.954)"><path class="b" d="M297.27,177.449c5.538,0,5.538,4.78,11.076,4.78s5.543-4.78,11.086-4.78,5.546,4.78,11.094,4.78,5.546-4.78,11.092-4.78" transform="translate(-297.27 -177.449)"/></g><g transform="translate(243.151 2114.007)"><path class="b" d="M297.27,177.449c5.538,0,5.538,4.78,11.076,4.78s5.543-4.78,11.086-4.78,5.546,4.78,11.094,4.78,5.546-4.78,11.092-4.78" transform="translate(-297.27 -177.449)"/></g><g transform="translate(143.675 2182.441)"><path class="b" d="M297.27,177.449c5.538,0,5.538,4.78,11.076,4.78s5.543-4.78,11.086-4.78,5.546,4.78,11.094,4.78,5.546-4.78,11.092-4.78" transform="translate(-297.27 -177.449)"/></g><g transform="translate(165.668 2064.718)"><path class="c" d="M129.777,141.189c4.066,0,4.066,2.976,8.133,2.976s4.066-2.976,8.134-2.976,4.066,2.976,8.133,2.976,4.069-2.976,8.137-2.976,4.07,2.976,8.138,2.976" transform="translate(-129.777 -141.189)"/></g><path class="d" d="M16.346,9.437,10.9,0,5.449,9.437,0,18.874H21.795ZM3.628,16.628l3.634-6.295,3.635-6.3,3.635,6.3,3.634,6.295H3.628Z" transform="translate(161.944 1982.26) rotate(45)"/><path class="d" d="M16.346,9.437,10.9,0,5.449,9.437,0,18.874H21.795ZM3.628,16.628l3.634-6.295,3.635-6.3,3.635,6.3,3.634,6.295H3.628Z" transform="translate(317.862 2049.989) rotate(45)"/><path class="d" d="M16.346,9.437,10.9,0,5.449,9.437,0,18.874H21.795ZM3.628,16.628l3.634-6.295,3.635-6.3,3.635,6.3,3.634,6.295H3.628Z" transform="translate(286.819 2174.864) rotate(45)"/><path class="d" d="M10.4,6.007,6.936,0,3.468,6.007,0,12.014H13.873Zm-8.1,4.578L4.622,6.578,6.936,2.57,9.25,6.578l2.313,4.007H2.309Z" transform="matrix(-0.407, 0.914, -0.914, -0.407, 177.342, 2121.106)"/><path class="d" d="M10.4,6.007,6.936,0,3.468,6.007,0,12.014H13.873Zm-8.1,4.578L4.622,6.578,6.936,2.57,9.25,6.578l2.313,4.007H2.309Z" transform="matrix(-0.407, 0.914, -0.914, -0.407, 365.713, 2217.76)"/><path class="d" d="M10.4,6.007,6.936,0,3.468,6.007,0,12.014H13.873Zm-8.1,4.578L4.622,6.578,6.936,2.57,9.25,6.578l2.313,4.007H2.309Z" transform="matrix(-0.407, 0.914, -0.914, -0.407, 242.954, 2026.568)"/></g></svg>